<svg xmlns="http://www.w3.org/2000/svg" viewBox="0 0 218.76 109.57"><defs><style>.cls-1,.cls-3{fill:#02ad24;}.cls-1{fill-rule:evenodd;}.cls-2{font-size:40.91px;fill:#e77119;font-family:Poppins-SemiBold, Poppins;font-weight:600;}</style></defs><g id="Layer_2" data-name="Layer 2"><g id="Layer_1-2" data-name="Layer 1"><path class="cls-1" d="M93.83,7.59C86.06.79,70.86,0,60.1,0a1.9,1.9,0,0,0-2,1.77c0,9.43.9,22.75,8.67,29.56A20.54,20.54,0,0,0,80,35.49a22,22,0,0,0,13.79-4.16C99.62,26.25,100.68,13.59,93.83,7.59Z"/><path class="cls-1" d="M145.56,7c-10.76,0-26,.79-33.73,7.59-6.86,6-5.78,18.66,0,23.74a22,22,0,0,0,13.8,4.16,20.56,20.56,0,0,0,13.29-4.16c7.76-6.81,8.66-20.13,8.66-29.56A1.9,1.9,0,0,0,145.56,7Z"/><path class="cls-1" d="M100.62,70.5a1.9,1.9,0,0,1-2-1.77c0-37.46-15.59-46.86-21.46-50.4a15.27,15.27,0,0,1-2-1.34,1.62,1.62,0,0,1,0-2.49,2.19,2.19,0,0,1,2.79,0,14,14,0,0,0,1.43.92c5.22,3.14,17.5,10.54,21.74,34.82,3.28-12.7,13-23.35,26.38-28.9a2.34,2.34,0,0,1,2.81.78,1.55,1.55,0,0,1-.7,2.24l-.1.05-.33.13c-22,9.1-26.6,29.06-26.6,44.19A1.89,1.89,0,0,1,100.62,70.5Z"/><text class="cls-2" transform="translate(0 85.32)">Quick<tspan class="cls-3" x="119.12" y="0">Agro</tspan></text></g></g></svg>